<svg width="104" height="32" viewBox="0 0 104 32" fill="none" xmlns="http://www.w3.org/2000/svg">
<g clip-path="url(#clip0_853_1731)">
<path d="M32 16C32 7.16344 24.8366 0 16 0C7.16344 0 0 7.16344 0 16C0 24.8366 7.16344 32 16 32C24.8366 32 32 24.8366 32 16Z" fill="#6F28D8"/>
<path fill-rule="evenodd" clip-rule="evenodd" d="M16.7432 11.5508C20.4382 11.5508 23.4337 14.5463 23.4337 18.2413C23.4337 21.9364 20.4382 24.9318 16.7432 24.9318C13.0481 24.9318 10.0527 21.9364 10.0527 18.2413V11.5508H16.7432ZM16.7432 14.8441C18.6194 14.8441 20.1404 16.3651 20.1404 18.2413C20.1404 20.1176 18.6194 21.6386 16.7432 21.6386C14.8669 21.6386 13.3459 20.1176 13.3459 18.2413V14.8441H16.7432Z" fill="white"/>
<path fill-rule="evenodd" clip-rule="evenodd" d="M23.4337 18.2725C23.4337 14.5774 20.4383 11.582 16.7432 11.582C13.0482 11.582 10.0527 14.5774 10.0527 18.2725C10.0527 21.9676 13.0482 24.963 16.7432 24.963C20.4383 24.963 23.4337 21.9676 23.4337 18.2725ZM16.7432 14.8752C18.6195 14.8752 20.1405 16.3962 20.1405 18.2725C20.1405 20.1487 18.6195 21.6697 16.7432 21.6697C14.867 21.6697 13.346 20.1487 13.346 18.2725V14.8752H16.7432Z" fill="white"/>
<path d="M13.0527 11.5859V14.8618H16.7355V11.5859H13.0527Z" fill="white"/>
<path fill-rule="evenodd" clip-rule="evenodd" d="M23.4342 18.273C23.4342 14.578 20.4387 11.5825 16.7437 11.5825H13.3472V10.4977C13.3472 8.67814 11.8722 7.20312 10.0527 7.20312V15.1372L10.0532 18.273C10.0532 21.9681 13.0486 24.9635 16.7437 24.9635C20.4387 24.9635 23.4342 21.9681 23.4342 18.273ZM13.3472 14.8758V15.1372L13.3464 18.273C13.3464 20.1493 14.8674 21.6703 16.7437 21.6703C18.6199 21.6703 20.1409 20.1493 20.1409 18.273C20.1409 16.3968 18.6199 14.8758 16.7437 14.8758H13.3472Z" fill="white"/>
<path d="M41.8066 22.9992V9.01829H46.887C47.8322 9.01829 48.6461 9.16925 49.3287 9.47119C50.0245 9.76 50.5562 10.1801 50.9237 10.7315C51.3044 11.2697 51.4948 11.9064 51.4948 12.6415C51.4948 13.311 51.3504 13.9018 51.0616 14.4138C50.7728 14.9126 50.3658 15.3064 49.8407 15.5952C50.5496 15.8709 51.101 16.3107 51.4948 16.9146C51.8886 17.5053 52.0855 18.2076 52.0855 19.0215C52.0855 19.8355 51.8755 20.5378 51.4554 21.1285C51.0353 21.7193 50.4446 22.1787 49.6832 22.5069C48.9218 22.8351 48.0226 22.9992 46.9855 22.9992H41.8066ZM44.6422 11.4404V14.6501H46.572C47.2152 14.6501 47.7075 14.5188 48.0488 14.2562C48.4033 13.9806 48.5805 13.5802 48.5805 13.0551C48.5805 12.53 48.4033 12.1296 48.0488 11.8539C47.7075 11.5782 47.2152 11.4404 46.572 11.4404H44.6422ZM44.6422 20.5772H46.8476C47.5828 20.5772 48.1473 20.4196 48.5411 20.1046C48.948 19.7895 49.1515 19.3366 49.1515 18.7459C49.1515 18.1551 48.948 17.7022 48.5411 17.3872C48.1473 17.0721 47.5828 16.9146 46.8476 16.9146H44.6422V20.5772ZM59.0755 23.2946C58.301 23.2946 57.5855 23.1633 56.9292 22.9007C56.2859 22.6251 55.728 22.2444 55.2554 21.7586C54.7828 21.2598 54.4152 20.6756 54.1527 20.0061C53.8901 19.3235 53.7588 18.5818 53.7588 17.781C53.7588 17.0065 53.8901 16.2844 54.1527 15.6149C54.4152 14.9454 54.7762 14.3678 55.2357 13.8821C55.7083 13.3832 56.2596 12.996 56.8898 12.7203C57.5199 12.4446 58.2025 12.3068 58.9377 12.3068C59.6991 12.3068 60.3883 12.4381 61.0053 12.7006C61.6354 12.9632 62.1736 13.3373 62.62 13.823C63.0663 14.3087 63.4076 14.8864 63.6439 15.5559C63.8933 16.2254 64.018 16.9736 64.018 17.8007V18.4899H56.555C56.6732 19.2644 56.9554 19.8748 57.4017 20.3212C57.8481 20.7544 58.4126 20.971 59.0952 20.971C59.5678 20.971 59.9944 20.8594 60.3751 20.6362C60.769 20.4131 61.0906 20.0914 61.34 19.6714L63.8014 20.459C63.5651 21.0498 63.2107 21.5552 62.7381 21.9752C62.2655 22.3953 61.7142 22.7235 61.084 22.9598C60.4539 23.183 59.7844 23.2946 59.0755 23.2946ZM58.9377 14.4335C58.3338 14.4335 57.8218 14.6304 57.4017 15.0242C56.9948 15.418 56.7257 15.9563 56.5944 16.6389H61.1825C61.0775 15.9563 60.8215 15.418 60.4145 15.0242C60.0207 14.6304 59.5284 14.4335 58.9377 14.4335ZM69.7827 23.2946C69.0476 23.2946 68.378 23.1764 67.7742 22.9401C67.1834 22.7038 66.678 22.3691 66.2579 21.9359C65.851 21.5027 65.5687 20.9907 65.4112 20.3999L67.8923 19.8683C68.0236 20.2752 68.2599 20.5969 68.6012 20.8331C68.9425 21.0694 69.3495 21.1876 69.8221 21.1876C70.2684 21.1876 70.636 21.0891 70.9248 20.8922C71.2136 20.6953 71.358 20.4262 71.358 20.0849C71.358 19.7961 71.2267 19.5598 70.9642 19.376C70.7148 19.1791 70.2947 19.0281 69.7039 18.9231L69.1526 18.8246C68.0236 18.6277 67.1637 18.2601 66.573 17.7219C65.9954 17.1837 65.7066 16.501 65.7066 15.674C65.7066 15.0176 65.8772 14.44 66.2186 13.9412C66.5599 13.4292 67.0325 13.0288 67.6363 12.74C68.2402 12.4512 68.936 12.3068 69.7236 12.3068C70.4194 12.3068 71.0495 12.4249 71.614 12.6612C72.1916 12.8844 72.6708 13.206 73.0515 13.6261C73.4322 14.0462 73.6947 14.5516 73.8391 15.1423L71.3777 15.6543C71.2464 15.2605 71.0298 14.952 70.7279 14.7288C70.4391 14.5057 70.0978 14.3941 69.7039 14.3941C69.297 14.3941 68.9622 14.4925 68.6997 14.6894C68.4371 14.8864 68.3058 15.1358 68.3058 15.4377C68.3058 15.7003 68.4306 15.9234 68.68 16.1072C68.9425 16.2779 69.3823 16.4157 69.9993 16.5207L70.5507 16.6192C71.6665 16.8161 72.5198 17.1902 73.1105 17.7416C73.7013 18.2798 73.9966 18.969 73.9966 19.8092C73.9966 20.3212 73.8916 20.7872 73.6816 21.2073C73.4847 21.6274 73.1959 21.9949 72.8152 22.31C72.4345 22.6251 71.9881 22.8679 71.4762 23.0386C70.9642 23.2092 70.3997 23.2946 69.7827 23.2946ZM75.9109 22.9992V12.6022H78.4511L78.5298 13.9412C78.8318 13.4423 79.2453 13.0485 79.7704 12.7597C80.3086 12.4578 80.919 12.3068 81.6017 12.3068C82.3631 12.3068 83.026 12.4906 83.5905 12.8581C84.1681 13.2126 84.6145 13.7246 84.9295 14.3941C85.2446 15.0636 85.4021 15.8512 85.4021 16.757V22.9992H82.6453V17.1115C82.6453 16.3895 82.4812 15.825 82.153 15.418C81.8248 14.9979 81.3719 14.7879 80.7943 14.7879C80.3742 14.7879 80.0067 14.8864 79.6916 15.0833C79.3765 15.2671 79.1271 15.5296 78.9433 15.8709C78.7596 16.2122 78.6677 16.5995 78.6677 17.0327V22.9992H75.9109ZM90.7532 9.78625C90.7532 10.0882 90.681 10.3573 90.5366 10.5936C90.4054 10.8299 90.215 11.0203 89.9656 11.1647C89.7293 11.296 89.4667 11.3616 89.1779 11.3616C88.8891 11.3616 88.62 11.296 88.3706 11.1647C88.1343 11.0203 87.9439 10.8299 87.7995 10.5936C87.6683 10.3573 87.6026 10.0882 87.6026 9.78625C87.6026 9.48432 87.6683 9.2152 87.7995 8.9789C87.9439 8.74261 88.1343 8.55882 88.3706 8.42755C88.62 8.28314 88.8891 8.21094 89.1779 8.21094C89.4667 8.21094 89.7293 8.28314 89.9656 8.42755C90.215 8.55882 90.4054 8.74261 90.5366 8.9789C90.681 9.2152 90.7532 9.48432 90.7532 9.78625ZM87.7995 22.9992V12.6022H90.5563V22.9992H87.7995ZM92.9577 22.9992V8.3094H95.6555V16.8358L99.515 12.6022H102.744L98.4123 17.2099L103.217 22.9992H99.7316L95.6555 17.8204V22.9992H92.9577Z" fill="white"/>
</g>
<defs>
<clipPath id="clip0_853_1731">
<rect width="104" height="32" fill="white"/>
</clipPath>
</defs>
</svg>
